<svg xmlns="http://www.w3.org/2000/svg" xmlns:xlink="http://www.w3.org/1999/xlink" width="500" zoomAndPan="magnify" viewBox="0 0 375 374.999991" height="500" preserveAspectRatio="xMidYMid meet" version="1.0"><defs><g/><clipPath id="aa010da043"><path d="M 167 124 L 207 124 L 207 178 L 167 178 Z M 167 124 " clip-rule="nonzero"/></clipPath><clipPath id="37addc72b0"><path d="M 194.753906 124.605469 L 206.828125 131.890625 L 179.527344 177.128906 L 167.453125 169.839844 Z M 194.753906 124.605469 " clip-rule="nonzero"/></clipPath><clipPath id="a9706393be"><path d="M 194.753906 124.605469 L 206.828125 131.890625 L 179.539062 177.109375 L 167.464844 169.820312 Z M 194.753906 124.605469 " clip-rule="nonzero"/></clipPath><clipPath id="1e40c5f270"><path d="M 168 131 L 196 131 L 196 159 L 168 159 Z M 168 131 " clip-rule="nonzero"/></clipPath><clipPath id="a7710b74cb"><path d="M 178.839844 131.804688 L 195.296875 141.738281 L 185.171875 158.511719 L 168.714844 148.582031 Z M 178.839844 131.804688 " clip-rule="nonzero"/></clipPath><clipPath id="38560edb31"><path d="M 178.839844 131.804688 L 195.296875 141.738281 L 185.175781 158.5 L 168.722656 148.570312 Z M 178.839844 131.804688 " clip-rule="nonzero"/></clipPath><clipPath id="044bf7c3b7"><path d="M 187 133 L 214 133 L 214 159 L 187 159 Z M 187 133 " clip-rule="nonzero"/></clipPath><clipPath id="46470a3496"><path d="M 197.007812 133.59375 L 213.503906 143.550781 L 204.464844 158.527344 L 187.96875 148.570312 Z M 197.007812 133.59375 " clip-rule="nonzero"/></clipPath><clipPath id="313fa77a86"><path d="M 197.007812 133.59375 L 213.460938 143.527344 L 204.421875 158.5 L 187.96875 148.570312 Z M 197.007812 133.59375 " clip-rule="nonzero"/></clipPath></defs><g fill="#3d3b3a" fill-opacity="1"><g transform="translate(147.994068, 150.253452)"><g><path d="M 57.625 -0.96875 C 57.882812 -0.96875 58.015625 -0.804688 58.015625 -0.484375 C 58.015625 -0.160156 57.882812 0 57.625 0 C 56.550781 0 54.890625 -0.0507812 52.640625 -0.15625 C 50.273438 -0.269531 48.585938 -0.328125 47.578125 -0.328125 C 46.234375 -0.328125 44.597656 -0.269531 42.671875 -0.15625 C 40.847656 -0.0507812 39.398438 0 38.328125 0 C 38.117188 0 38.015625 -0.160156 38.015625 -0.484375 C 38.015625 -0.804688 38.117188 -0.96875 38.328125 -0.96875 C 39.722656 -0.96875 40.726562 -1.113281 41.34375 -1.40625 C 41.957031 -1.695312 42.265625 -2.21875 42.265625 -2.96875 C 42.265625 -3.882812 41.726562 -5.410156 40.65625 -7.546875 L 35.203125 -18.40625 L 15.421875 -18.40625 L 12.296875 -11.40625 C 11.597656 -9.851562 11.25 -8.410156 11.25 -7.078125 C 11.25 -5.140625 11.929688 -3.632812 13.296875 -2.5625 C 14.660156 -1.5 16.492188 -0.96875 18.796875 -0.96875 C 19.066406 -0.96875 19.203125 -0.804688 19.203125 -0.484375 C 19.203125 -0.160156 19.066406 0 18.796875 0 C 17.835938 0 16.445312 -0.0507812 14.625 -0.15625 C 12.59375 -0.269531 10.828125 -0.328125 9.328125 -0.328125 C 7.878906 -0.328125 6.132812 -0.269531 4.09375 -0.15625 C 2.269531 -0.0507812 0.796875 0 -0.328125 0 C -0.535156 0 -0.640625 -0.160156 -0.640625 -0.484375 C -0.640625 -0.804688 -0.535156 -0.96875 -0.328125 -0.96875 C 1.171875 -0.96875 2.429688 -1.273438 3.453125 -1.890625 C 4.472656 -2.503906 5.488281 -3.597656 6.5 -5.171875 C 7.519531 -6.753906 8.726562 -9.101562 10.125 -12.21875 L 27.5625 -50.546875 C 27.664062 -50.703125 27.90625 -50.78125 28.28125 -50.78125 C 28.707031 -50.78125 28.953125 -50.703125 29.015625 -50.546875 L 49.09375 -11.015625 C 50.96875 -7.203125 52.519531 -4.570312 53.75 -3.125 C 54.988281 -1.6875 56.28125 -0.96875 57.625 -0.96875 Z M 16.46875 -20.65625 L 33.984375 -20.65625 L 24.75 -38.96875 Z M 16.46875 -20.65625 "/></g></g></g><g fill="#3d3b3a" fill-opacity="1"><g transform="translate(174.900741, 183.998748)"><g><path d="M 66.9375 -0.96875 C 67.039062 -0.96875 67.09375 -0.804688 67.09375 -0.484375 C 67.09375 -0.160156 67.039062 0 66.9375 0 C 65.113281 0 63.664062 -0.0234375 62.59375 -0.078125 L 56.65625 -0.15625 L 50.625 -0.078125 C 49.601562 -0.0234375 48.210938 0 46.453125 0 C 46.285156 0 46.203125 -0.160156 46.203125 -0.484375 C 46.203125 -0.804688 46.285156 -0.96875 46.453125 -0.96875 C 48.703125 -0.96875 50.226562 -1.234375 51.03125 -1.765625 C 51.832031 -2.304688 52.234375 -3.429688 52.234375 -5.140625 L 52.15625 -6.515625 L 50.46875 -39.375 L 33.90625 -0.5625 C 33.800781 -0.34375 33.585938 -0.234375 33.265625 -0.234375 C 32.941406 -0.234375 32.726562 -0.34375 32.625 -0.5625 L 12.296875 -39.21875 L 11.65625 -10.203125 C 11.601562 -7.304688 12.175781 -5.039062 13.375 -3.40625 C 14.582031 -1.78125 16.285156 -0.96875 18.484375 -0.96875 C 18.640625 -0.96875 18.71875 -0.804688 18.71875 -0.484375 C 18.71875 -0.160156 18.640625 0 18.484375 0 C 17.035156 0 15.910156 -0.0234375 15.109375 -0.078125 L 10.6875 -0.15625 L 5.625 -0.078125 C 4.769531 -0.0234375 3.617188 0 2.171875 0 C 2.003906 0 1.921875 -0.160156 1.921875 -0.484375 C 1.921875 -0.804688 2.003906 -0.96875 2.171875 -0.96875 C 4.367188 -0.96875 6.109375 -1.796875 7.390625 -3.453125 C 8.679688 -5.117188 9.351562 -7.367188 9.40625 -10.203125 L 10.125 -43.46875 L 10.046875 -43.5625 C 8.972656 -45.539062 7.859375 -46.984375 6.703125 -47.890625 C 5.554688 -48.804688 4.234375 -49.265625 2.734375 -49.265625 C 2.566406 -49.265625 2.484375 -49.421875 2.484375 -49.734375 C 2.484375 -50.054688 2.566406 -50.21875 2.734375 -50.21875 L 6.515625 -50.140625 C 7.265625 -50.085938 8.226562 -50.0625 9.40625 -50.0625 L 13.65625 -50.140625 C 14.144531 -50.191406 14.765625 -50.21875 15.515625 -50.21875 C 16.203125 -50.21875 16.734375 -49.976562 17.109375 -49.5 C 17.484375 -49.019531 18.179688 -47.867188 19.203125 -46.046875 L 36.71875 -13.171875 L 52 -48.21875 C 52.3125 -48.96875 52.640625 -49.488281 52.984375 -49.78125 C 53.335938 -50.070312 53.8125 -50.21875 54.40625 -50.21875 C 54.882812 -50.21875 55.429688 -50.191406 56.046875 -50.140625 C 56.660156 -50.085938 57.375 -50.0625 58.1875 -50.0625 L 62.921875 -50.140625 C 63.671875 -50.191406 64.742188 -50.21875 66.140625 -50.21875 C 66.296875 -50.21875 66.375 -50.054688 66.375 -49.734375 C 66.375 -49.421875 66.296875 -49.265625 66.140625 -49.265625 C 63.617188 -49.265625 61.796875 -48.753906 60.671875 -47.734375 C 59.546875 -46.710938 59.035156 -45.132812 59.140625 -43 L 61.078125 -6.515625 C 61.179688 -4.847656 61.378906 -3.640625 61.671875 -2.890625 C 61.972656 -2.140625 62.507812 -1.628906 63.28125 -1.359375 C 64.0625 -1.097656 65.28125 -0.96875 66.9375 -0.96875 Z M 66.9375 -0.96875 "/></g></g></g><g clip-path="url(#aa010da043)"><g clip-path="url(#37addc72b0)"><g clip-path="url(#a9706393be)"><path fill="#4ec4b0" d="M 194.753906 124.605469 L 206.828125 131.890625 L 179.527344 177.128906 L 167.453125 169.839844 Z M 194.753906 124.605469 " fill-opacity="1" fill-rule="nonzero"/></g></g></g><g clip-path="url(#1e40c5f270)"><g clip-path="url(#a7710b74cb)"><g clip-path="url(#38560edb31)"><path fill="#4ec4b0" d="M 178.839844 131.804688 L 195.296875 141.738281 L 185.171875 158.511719 L 168.714844 148.582031 Z M 178.839844 131.804688 " fill-opacity="1" fill-rule="nonzero"/></g></g></g><g clip-path="url(#044bf7c3b7)"><g clip-path="url(#46470a3496)"><g clip-path="url(#313fa77a86)"><path fill="#4ec4b0" d="M 197.007812 133.59375 L 213.445312 143.515625 L 204.40625 158.492188 L 187.96875 148.570312 Z M 197.007812 133.59375 " fill-opacity="1" fill-rule="nonzero"/></g></g></g><path stroke-linecap="butt" transform="matrix(0.431053, -0.613753, 0.613753, 0.431053, 167.342485, 173.018149)" fill="none" stroke-linejoin="miter" d="M 0.00177296 4.500538 L 116.885837 4.49984 " stroke="#3d3b3a" stroke-width="9" stroke-opacity="1" stroke-miterlimit="4"/></svg>