<svg xmlns="http://www.w3.org/2000/svg" xmlns:xlink="http://www.w3.org/1999/xlink" width="500" zoomAndPan="magnify" viewBox="0 0 375 374.999991" height="500" preserveAspectRatio="xMidYMid meet" version="1.0"><defs><g/><clipPath id="cb25e94d59"><path d="M 127 91.714844 L 248.191406 91.714844 L 248.191406 202.714844 L 127 202.714844 Z M 127 91.714844 " clip-rule="nonzero"/></clipPath><clipPath id="003c1d2c7d"><path d="M 126.691406 91.714844 L 248.191406 91.714844 L 248.191406 202.714844 L 126.691406 202.714844 Z M 126.691406 91.714844 " clip-rule="nonzero"/></clipPath></defs><g clip-path="url(#cb25e94d59)"><path fill="#4ec4b8" d="M 187.777344 202.976562 L 141.015625 136.3125 L 141.015625 178.734375 L 127.269531 178.734375 L 127.269531 91.714844 L 187.777344 178.554688 L 248.285156 91.714844 L 248.285156 178.734375 L 234.539062 178.734375 L 234.539062 136.3125 Z M 187.777344 202.976562 " fill-opacity="1" fill-rule="nonzero"/></g><g clip-path="url(#003c1d2c7d)"><path fill="#4ec4b8" d="M 248.285156 202.976562 L 219.933594 202.976562 L 187.777344 126.988281 L 155.625 202.976562 L 126.691406 202.976562 L 126.691406 189.230469 L 146.515625 189.230469 L 187.777344 91.714844 L 229.042969 189.230469 L 248.285156 189.230469 Z M 248.285156 202.976562 " fill-opacity="1" fill-rule="nonzero"/></g><g fill="#4ec4b8" fill-opacity="1"><g transform="translate(94.010155, 238.176592)"><g><path d="M 32.953125 0 L 24.609375 0 L 22.765625 -3.21875 L 10.390625 -3.21875 L 8.546875 0 L 0.203125 0 L 12.75 -19.609375 L 20.40625 -19.609375 Z M 19.984375 -8.0625 L 16.578125 -14.015625 L 13.171875 -8.0625 Z M 19.984375 -8.0625 "/></g></g></g><g fill="#4ec4b8" fill-opacity="1"><g transform="translate(131.359825, 238.176592)"><g><path d="M 31.296875 0 L 21.5 0 L 10.421875 -13.28125 L 10.421875 0 L 2.1875 0 L 2.1875 -19.625 L 11.984375 -19.625 L 23.0625 -6.40625 L 23.0625 -19.625 L 31.296875 -19.625 Z M 31.296875 0 "/></g></g></g><g fill="#4ec4b8" fill-opacity="1"><g transform="translate(169.037575, 238.176592)"><g><path d="M 10.421875 0 L 2.1875 0 L 2.1875 -19.625 L 10.421875 -19.625 Z M 10.421875 0 "/></g></g></g><g fill="#4ec4b8" fill-opacity="1"><g transform="translate(185.841283, 238.176592)"><g><path d="M 34.40625 0 L 23.703125 0 L 15.28125 -6.5625 L 10.421875 -3.234375 L 10.421875 0 L 2.1875 0 L 2.1875 -19.625 L 10.421875 -19.625 L 10.421875 -10.546875 L 23.625 -19.625 L 34.40625 -19.625 L 20.34375 -10.015625 Z M 34.40625 0 "/></g></g></g><g fill="#4ec4b8" fill-opacity="1"><g transform="translate(224.639967, 238.176592)"><g><path d="M 25.8125 0 L 2.1875 0 L 2.1875 -19.625 L 24.734375 -19.625 L 24.734375 -14.765625 L 10.421875 -14.765625 L 10.421875 -11.6875 L 22.515625 -11.6875 L 22.515625 -7.921875 L 10.421875 -7.921875 L 10.421875 -4.859375 L 25.8125 -4.859375 Z M 25.8125 0 "/></g></g></g><g fill="#4ec4b8" fill-opacity="1"><g transform="translate(255.742455, 238.176592)"><g><path d="M 16.734375 0 L 8.5 0 L 8.5 -14.765625 L 0.828125 -14.765625 L 0.828125 -19.625 L 24.421875 -19.625 L 24.421875 -14.765625 L 16.734375 -14.765625 Z M 16.734375 0 "/></g></g></g><g fill="#4ec4b8" fill-opacity="1"><g transform="translate(121.465658, 280.726666)"><g><path d="M 4.71875 -19.859375 L 0.375 -19.859375 L 0.375 -24.40625 L 13.875 -24.40625 L 13.875 -19.859375 L 9.390625 -19.859375 L 9.390625 0 L 4.71875 0 Z M 4.71875 -19.859375 "/></g></g></g><g fill="#4ec4b8" fill-opacity="1"><g transform="translate(152.57379, 280.726666)"><g><path d="M 2.78125 -24.40625 L 16.109375 -24.40625 L 16.109375 -19.890625 L 7.453125 -19.890625 L 7.453125 -15.4375 L 16.109375 -15.4375 L 16.109375 -11.015625 L 7.453125 -11.015625 L 7.453125 -4.5625 L 16.109375 -4.5625 L 16.109375 0 L 2.78125 0 Z M 2.78125 -24.40625 "/></g></g></g><g fill="#4ec4b8" fill-opacity="1"><g transform="translate(187.047526, 280.726666)"><g><path d="M 14.515625 0.609375 C 12.003906 0.609375 9.765625 0.0625 7.796875 -1.03125 C 5.835938 -2.132812 4.3125 -3.660156 3.21875 -5.609375 C 2.132812 -7.554688 1.59375 -9.765625 1.59375 -12.234375 C 1.59375 -14.734375 2.179688 -16.957031 3.359375 -18.90625 C 4.546875 -20.851562 6.128906 -22.359375 8.109375 -23.421875 C 10.085938 -24.492188 12.25 -25.03125 14.59375 -25.03125 C 16.582031 -25.03125 18.5 -24.601562 20.34375 -23.75 C 22.195312 -22.894531 23.78125 -21.6875 25.09375 -20.125 L 21.828125 -17 C 20.710938 -18.175781 19.554688 -19.0625 18.359375 -19.65625 C 17.160156 -20.257812 15.867188 -20.5625 14.484375 -20.5625 C 12.960938 -20.5625 11.566406 -20.195312 10.296875 -19.46875 C 9.023438 -18.75 8.015625 -17.753906 7.265625 -16.484375 C 6.523438 -15.222656 6.15625 -13.804688 6.15625 -12.234375 C 6.15625 -10.585938 6.515625 -9.128906 7.234375 -7.859375 C 7.960938 -6.585938 8.96875 -5.597656 10.25 -4.890625 C 11.53125 -4.191406 12.976562 -3.84375 14.59375 -3.84375 C 16.039062 -3.84375 17.320312 -4.125 18.4375 -4.6875 C 19.5625 -5.257812 20.738281 -6.15625 21.96875 -7.375 L 25.125 -4.078125 C 23.988281 -2.960938 22.90625 -2.070312 21.875 -1.40625 C 20.84375 -0.738281 19.734375 -0.238281 18.546875 0.09375 C 17.359375 0.4375 16.015625 0.609375 14.515625 0.609375 Z M 14.515625 0.609375 "/></g></g></g><g fill="#4ec4b8" fill-opacity="1"><g transform="translate(230.394259, 280.726666)"><g><path d="M 2.78125 -24.40625 L 7.453125 -24.40625 L 7.453125 -15.234375 L 15.671875 -15.234375 L 15.671875 -24.40625 L 20.328125 -24.40625 L 20.328125 0 L 15.671875 0 L 15.671875 -10.671875 L 7.453125 -10.671875 L 7.453125 0 L 2.78125 0 Z M 2.78125 -24.40625 "/></g></g></g></svg>